<svg xmlns="http://www.w3.org/2000/svg" viewBox="0 0 1190.87 1143.5"><defs><style>.cls-1{fill:#fff;}.cls-2{fill:none;stroke:#fff;stroke-miterlimit:10;stroke-width:10px;}</style></defs><title>Asset 1logo</title><g id="Layer_2" data-name="Layer 2"><g id="Layer_1-2" data-name="Layer 1"><rect class="cls-1" x="98.41" y="465.21" width="497.07" height="231.54" rx="112.94" transform="translate(454.9 -87.04) rotate(40.02)"/><path class="cls-1" d="M305.47,366.51l225.4,188.34,2-164.72s-49.77-23.2-117-30.79S305.47,366.51,305.47,366.51Z"/><path class="cls-1" d="M377.34,784.7l-242.9-203,5.17,177.6c50.18,22.81,49.2,21.47,116,29.6C323.31,797.15,377.34,784.7,377.34,784.7Z"/><rect class="cls-1" x="586.68" y="465.21" width="497.07" height="231.54" rx="112.94" transform="translate(569.26 -401.05) rotate(40.02)"/><path class="cls-1" d="M793.74,366.51l225.4,188.34,2-164.72s-49.77-23.2-117-30.79S793.74,366.51,793.74,366.51Z"/><path class="cls-1" d="M865.61,784.7l-242.9-203,5.16,177.6c50.19,22.81,49.21,21.47,116,29.6C811.58,797.15,865.61,784.7,865.61,784.7Z"/><ellipse class="cls-2" cx="595.43" cy="571.75" rx="590.43" ry="566.75"/></g></g></svg>